<mxfile host="app.diagrams.net" agent="Mozilla/5.0 (Windows NT 10.0; Win64; x64) AppleWebKit/537.36 (KHTML, like Gecko) Chrome/138.0.0.0 Safari/537.36" version="28.1.0">
  <diagram name="Page-1" id="diagram-1">
    <mxGraphModel dx="1420" dy="743" grid="1" gridSize="10" guides="1" tooltips="1" connect="1" arrows="1" fold="1" page="1" pageScale="1" pageWidth="1400" pageHeight="900" background="#ffffff" math="0" shadow="0">
      <root>
        <mxCell id="0" />
        <mxCell id="1" parent="0" />
        <mxCell id="title" value="研究目标与研究问题映射关系" style="text;html=1;strokeColor=none;fillColor=none;align=center;verticalAlign=middle;whiteSpace=wrap;rounded=0;fontSize=18;fontStyle=1;" parent="1" vertex="1">
          <mxGeometry x="500" y="20" width="400" height="30" as="geometry" />
        </mxCell>
        <mxCell id="objectives-header" value="研究目标" style="text;html=1;strokeColor=none;fillColor=#e3f2fd;align=center;verticalAlign=middle;whiteSpace=wrap;rounded=1;fontSize=16;fontStyle=1;" parent="1" vertex="1">
          <mxGeometry x="240" y="80" width="300" height="40" as="geometry" />
        </mxCell>
        <mxCell id="objective1" value="目标1：数字化转型需求分析" style="rounded=1;whiteSpace=wrap;html=1;fillColor=#e8f5e8;strokeColor=#4caf50;fontSize=15;fontStyle=1;align=center;" parent="1" vertex="1">
          <mxGeometry x="220" y="150" width="200" height="50" as="geometry" />
        </mxCell>
        <mxCell id="objective1-detail" value="• 识别不同群体数字化需求差异&#xa;• 构建数字化转型需求画像&#xa;• 分析转型阻碍因素" style="text;html=1;strokeColor=none;fillColor=none;align=left;verticalAlign=top;whiteSpace=wrap;rounded=0;fontSize=13;" parent="1" vertex="1">
          <mxGeometry x="440" y="137" width="200" height="50" as="geometry" />
        </mxCell>
        <mxCell id="objective2" value="目标2：教学效率与公平性提升" style="rounded=1;whiteSpace=wrap;html=1;fillColor=#fff3e0;strokeColor=#ff9800;fontSize=14;fontStyle=1;align=center;" parent="1" vertex="1">
          <mxGeometry x="220" y="230" width="200" height="50" as="geometry" />
        </mxCell>
        <mxCell id="objective2-detail" value="• 提供数字化转型影响证据&#xa;• 优化教学效率指标体系&#xa;• 促进教育公平性实现" style="text;html=1;strokeColor=none;fillColor=none;align=left;verticalAlign=top;whiteSpace=wrap;rounded=0;fontSize=13;" parent="1" vertex="1">
          <mxGeometry x="440" y="233" width="200" height="50" as="geometry" />
        </mxCell>
        <mxCell id="objective3" value="目标3：多元教学模式设计" style="rounded=1;whiteSpace=wrap;html=1;fillColor=#f3e5f5;strokeColor=#9c27b0;fontSize=15;fontStyle=1;align=center;" parent="1" vertex="1">
          <mxGeometry x="220" y="310" width="200" height="50" as="geometry" />
        </mxCell>
        <mxCell id="objective3-detail" value="• 设计适配性教学模式&#xa;• 验证多元模式有效性&#xa;• 构建情境适应机制" style="text;html=1;strokeColor=none;fillColor=none;align=left;verticalAlign=top;whiteSpace=wrap;rounded=0;fontSize=13;" parent="1" vertex="1">
          <mxGeometry x="440" y="313" width="200" height="50" as="geometry" />
        </mxCell>
        <mxCell id="objective4" value="目标4：实践应用体系构建" style="rounded=1;whiteSpace=wrap;html=1;fillColor=#ffebee;strokeColor=#f44336;fontSize=15;fontStyle=1;align=center;" parent="1" vertex="1">
          <mxGeometry x="220" y="390" width="200" height="50" as="geometry" />
        </mxCell>
        <mxCell id="objective4-detail" value="• 开发课程模块体系&#xa;• 构建评估工具框架&#xa;• 提供动态路径指导" style="text;html=1;strokeColor=none;fillColor=none;align=left;verticalAlign=top;whiteSpace=wrap;rounded=0;fontSize=13;" parent="1" vertex="1">
          <mxGeometry x="440" y="393" width="200" height="50" as="geometry" />
        </mxCell>
        <mxCell id="questions-header" value="研究问题" style="text;html=1;strokeColor=none;fillColor=#e3f2fd;align=center;verticalAlign=middle;whiteSpace=wrap;rounded=1;fontSize=16;fontStyle=1;" parent="1" vertex="1">
          <mxGeometry x="755" y="80" width="300" height="40" as="geometry" />
        </mxCell>
        <mxCell id="rq1" value="RQ1：数字化转型现状" style="rounded=1;whiteSpace=wrap;html=1;fillColor=#e8f5e8;strokeColor=#4caf50;fontSize=15;fontStyle=1;align=center;" parent="1" vertex="1">
          <mxGeometry x="775" y="150" width="160" height="50" as="geometry" />
        </mxCell>
        <mxCell id="rq1-detail" value="需求画像与差异分析&#xa;• Q1.1: 问卷调查&#xa;• Q1.2: 深度访谈&#xa;• Q1.3: 混合方法" style="text;html=1;strokeColor=none;fillColor=none;align=left;verticalAlign=top;whiteSpace=wrap;rounded=0;fontSize=13;" parent="1" vertex="1">
          <mxGeometry x="955" y="150" width="140" height="50" as="geometry" />
        </mxCell>
        <mxCell id="rq2" value="RQ2：数字化转型影响因素" style="rounded=1;whiteSpace=wrap;html=1;fillColor=#fff3e0;strokeColor=#ff9800;fontSize=15;fontStyle=1;align=center;" parent="1" vertex="1">
          <mxGeometry x="775" y="230" width="160" height="50" as="geometry" />
        </mxCell>
        <mxCell id="rq2-detail" value="教学效率与公平性证据&#xa;• Q2.1: 实验研究&#xa;• Q2.2: 结构方程模型&#xa;• Q2.3: 案例比较" style="text;html=1;strokeColor=none;fillColor=none;align=left;verticalAlign=top;whiteSpace=wrap;rounded=0;fontSize=13;" parent="1" vertex="1">
          <mxGeometry x="955" y="230" width="140" height="50" as="geometry" />
        </mxCell>
        <mxCell id="rq3" value="RQ3：数字化转型优化策略" style="rounded=1;whiteSpace=wrap;html=1;fillColor=#f3e5f5;strokeColor=#9c27b0;fontSize=14;fontStyle=1;align=center;" parent="1" vertex="1">
          <mxGeometry x="775" y="310" width="160" height="50" as="geometry" />
        </mxCell>
        <mxCell id="rq3-detail" value="多元教学模式有效性&#xa;• Q3.1: 实验验证&#xa;• Q3.2: 优化算法&#xa;• Q3.3: 路径分析" style="text;html=1;strokeColor=none;fillColor=none;align=left;verticalAlign=top;whiteSpace=wrap;rounded=0;fontSize=13;" parent="1" vertex="1">
          <mxGeometry x="955" y="310" width="140" height="50" as="geometry" />
        </mxCell>
        <mxCell id="rq4" value="RQ4：数字化转型评估工具" style="rounded=1;whiteSpace=wrap;html=1;fillColor=#ffebee;strokeColor=#f44336;fontSize=14;fontStyle=1;align=center;" parent="1" vertex="1">
          <mxGeometry x="775" y="390" width="160" height="50" as="geometry" />
        </mxCell>
        <mxCell id="rq4-detail" value="课程模块可操作性&#xa;• Q4.1: 工具设计&#xa;• Q4.2: 可靠性验证&#xa;• Q4.3: 政策分析" style="text;html=1;strokeColor=none;fillColor=none;align=left;verticalAlign=top;whiteSpace=wrap;rounded=0;fontSize=13;" parent="1" vertex="1">
          <mxGeometry x="955" y="390" width="140" height="50" as="geometry" />
        </mxCell>
        <mxCell id="rq5" value="RQ5：数字化转型综合应用" style="rounded=1;whiteSpace=wrap;html=1;fillColor=#ffebee;strokeColor=#f44336;fontSize=14;fontStyle=1;align=center;" parent="1" vertex="1">
          <mxGeometry x="775" y="470" width="160" height="50" as="geometry" />
        </mxCell>
        <mxCell id="rq5-detail" value="动态路径评估&#xa;• Q5.1: 模拟仿真&#xa;• Q5.2: 实证验证&#xa;• Q5.3: 理论综合" style="text;html=1;strokeColor=none;fillColor=none;align=left;verticalAlign=top;whiteSpace=wrap;rounded=0;fontSize=13;" parent="1" vertex="1">
          <mxGeometry x="955" y="470" width="140" height="50" as="geometry" />
        </mxCell>
        <mxCell id="mapping1" value="1:1映射" style="endArrow=block;startArrow=block;html=1;rounded=0;strokeWidth=3;strokeColor=#4caf50;exitX=1;exitY=0.5;exitDx=0;exitDy=0;fontSize=15;" parent="1" edge="1" source="objective1">
          <mxGeometry x="0.2" width="50" height="50" relative="1" as="geometry">
            <mxPoint x="280" y="175" as="sourcePoint" />
            <mxPoint x="770" y="175" as="targetPoint" />
            <mxPoint as="offset" />
          </mxGeometry>
        </mxCell>
        <mxCell id="mapping2" value="1:1映射" style="endArrow=block;startArrow=block;html=1;rounded=0;strokeWidth=3;strokeColor=#ff9800;entryX=0;entryY=0.5;entryDx=0;entryDy=0;fontSize=16;" parent="1" edge="1" target="rq2">
          <mxGeometry x="0.1268" width="50" height="50" relative="1" as="geometry">
            <mxPoint x="420" y="255" as="sourcePoint" />
            <mxPoint x="920" y="255" as="targetPoint" />
            <mxPoint as="offset" />
          </mxGeometry>
        </mxCell>
        <mxCell id="mapping3" value="1:1映射" style="endArrow=block;startArrow=block;html=1;rounded=0;strokeWidth=3;strokeColor=#9c27b0;fontSize=16;" parent="1" edge="1">
          <mxGeometry width="50" height="50" relative="1" as="geometry">
            <mxPoint x="420" y="335" as="sourcePoint" />
            <mxPoint x="770" y="335" as="targetPoint" />
          </mxGeometry>
        </mxCell>
        <mxCell id="mapping4a" value="" style="endArrow=block;html=1;rounded=0;strokeWidth=3;strokeColor=#f44336;exitX=1;exitY=0.5;exitDx=0;exitDy=0;" parent="1" edge="1" source="objective4">
          <mxGeometry width="50" height="50" relative="1" as="geometry">
            <mxPoint x="282" y="415" as="sourcePoint" />
            <mxPoint x="602" y="415" as="targetPoint" />
          </mxGeometry>
        </mxCell>
        <mxCell id="mapping4b" value="" style="endArrow=block;html=1;rounded=0;strokeWidth=3;strokeColor=#f44336;" parent="1" edge="1">
          <mxGeometry width="50" height="50" relative="1" as="geometry">
            <mxPoint x="600" y="415" as="sourcePoint" />
            <mxPoint x="770" y="415" as="targetPoint" />
          </mxGeometry>
        </mxCell>
        <mxCell id="mapping4c" value="1:2映射" style="endArrow=block;html=1;rounded=0;strokeWidth=3;strokeColor=#f44336;entryX=0;entryY=0;entryDx=0;entryDy=0;fontSize=15;" parent="1" edge="1" target="rq5">
          <mxGeometry x="0.0031" width="50" height="50" relative="1" as="geometry">
            <mxPoint x="600" y="415" as="sourcePoint" />
            <mxPoint x="920" y="495" as="targetPoint" />
            <mxPoint as="offset" />
          </mxGeometry>
        </mxCell>
        <mxCell id="mapping-legend" value="映射关系说明" style="text;html=1;strokeColor=none;fillColor=#f5f5f5;align=center;verticalAlign=middle;whiteSpace=wrap;rounded=1;fontSize=16;fontStyle=1;" parent="1" vertex="1">
          <mxGeometry x="520" y="520" width="300" height="30" as="geometry" />
        </mxCell>
        <mxCell id="mapping-detail1" value="• 目标1 ↔ RQ1：需求画像与差异分析的直接对应" style="text;html=1;strokeColor=none;fillColor=none;align=left;verticalAlign=middle;whiteSpace=wrap;rounded=0;fontSize=15;fontColor=#4caf50;" parent="1" vertex="1">
          <mxGeometry x="223" y="502" width="400" height="25" as="geometry" />
        </mxCell>
        <mxCell id="mapping-detail2" value="• 目标2 ↔ RQ2：教学效率与公平性证据的实证支撑" style="text;html=1;strokeColor=none;fillColor=none;align=left;verticalAlign=middle;whiteSpace=wrap;rounded=0;fontSize=15;fontColor=#ff9800;" parent="1" vertex="1">
          <mxGeometry x="223" y="532" width="400" height="25" as="geometry" />
        </mxCell>
        <mxCell id="mapping-detail3" value="• 目标3 ↔ RQ3：多元教学模式的有效性与适配性验证" style="text;html=1;strokeColor=none;fillColor=none;align=left;verticalAlign=middle;whiteSpace=wrap;rounded=0;fontSize=15;fontColor=#9c27b0;" parent="1" vertex="1">
          <mxGeometry x="223" y="562" width="400" height="25" as="geometry" />
        </mxCell>
        <mxCell id="mapping-detail4" value="• 目标4 ↔ RQ4&amp;amp;RQ5：课程模块、评估工具的落地可操作性与动态路径评估" style="text;html=1;strokeColor=none;fillColor=none;align=left;verticalAlign=middle;whiteSpace=wrap;rounded=0;fontSize=15;fontColor=#f44336;" parent="1" vertex="1">
          <mxGeometry x="223" y="592" width="520" height="25" as="geometry" />
        </mxCell>
        <mxCell id="mapping-types" value="映射类型" style="text;html=1;strokeColor=none;fillColor=#e3f2fd;align=center;verticalAlign=middle;whiteSpace=wrap;rounded=1;fontSize=15;fontStyle=1;" parent="1" vertex="1">
          <mxGeometry x="800" y="573" width="100" height="25" as="geometry" />
        </mxCell>
        <mxCell id="one-to-one" value="一对一映射（1:1）" style="text;html=1;strokeColor=none;fillColor=none;align=left;verticalAlign=middle;whiteSpace=wrap;rounded=0;fontSize=15;" parent="1" vertex="1">
          <mxGeometry x="800" y="603" width="170" height="20" as="geometry" />
        </mxCell>
        <mxCell id="one-to-two" value="一对二映射（1:2）" style="text;html=1;strokeColor=none;fillColor=none;align=left;verticalAlign=middle;whiteSpace=wrap;rounded=0;fontSize=15;" parent="1" vertex="1">
          <mxGeometry x="800" y="628" width="190" height="20" as="geometry" />
        </mxCell>
        <mxCell id="contribution-label" value="研究贡献" style="text;html=1;strokeColor=none;fillColor=#e8f5e8;align=center;verticalAlign=middle;whiteSpace=wrap;rounded=1;fontSize=15;fontStyle=1;" parent="1" vertex="1">
          <mxGeometry x="273" y="632" width="100" height="30" as="geometry" />
        </mxCell>
        <mxCell id="theoretical-contribution" value="理论贡献：构建数字化转型的系统性理论框架" style="text;html=1;strokeColor=none;fillColor=none;align=left;verticalAlign=middle;whiteSpace=wrap;rounded=0;fontSize=15;" parent="1" vertex="1">
          <mxGeometry x="403" y="632" width="300" height="25" as="geometry" />
        </mxCell>
        <mxCell id="practical-contribution" value="实践贡献：提供可操作的数字化转型实施路径" style="text;html=1;strokeColor=none;fillColor=none;align=left;verticalAlign=middle;whiteSpace=wrap;rounded=0;fontSize=15;" parent="1" vertex="1">
          <mxGeometry x="403" y="662" width="300" height="25" as="geometry" />
        </mxCell>
        <mxCell id="methodological-contribution" value="方法贡献：集成多元研究方法的创新应用" style="text;html=1;strokeColor=none;fillColor=none;align=left;verticalAlign=middle;whiteSpace=wrap;rounded=0;fontSize=15;" parent="1" vertex="1">
          <mxGeometry x="403" y="692" width="300" height="25" as="geometry" />
        </mxCell>
      </root>
    </mxGraphModel>
  </diagram>
</mxfile>
